<?xml version="1.0" encoding="iso-8859-1"?>
<!-- Uploaded to: SVG Repo, www.svgrepo.com, Generator: SVG Repo Mixer Tools -->
<svg height="800px" width="800px" version="1.1" id="Layer_1" xmlns="http://www.w3.org/2000/svg" xmlns:xlink="http://www.w3.org/1999/xlink" 
	 viewBox="0 0 512.001 512.001" xml:space="preserve">
<path style="fill:#FC7576;" d="M181.921,292.034c-37.82,36.068-112.23,82.245-155.706,125.721
	c-18.781,18.781-18.781,49.232,0,68.013c18.781,18.781,49.232,18.781,68.012,0c43.476-43.476,89.653-117.886,125.721-155.706
	L181.921,292.034z M71.412,462.955c-2.988,2.987-6.962,4.634-11.19,4.634c-4.227,0-8.201-1.646-11.191-4.635
	c-6.172-6.173-6.172-16.214,0-22.384c2.99-2.99,6.964-4.635,11.191-4.635c4.228,0,8.202,1.647,11.193,4.636
	c2.988,2.987,4.635,6.962,4.635,11.191C76.049,455.99,74.402,459.966,71.412,462.955z"/>
<path style="fill:#FF9690;" d="M277.105,355.908c-35.312-0.001-65.567-11.597-87.502-33.531
	c-28.276-28.274-39.215-70.074-30.806-117.699c8.129-46.034,33.546-92.327,71.568-130.349
	c46.52-46.52,106.539-74.293,160.552-74.293c35.304,0,65.56,11.594,87.496,33.53c28.276,28.276,39.215,70.074,30.806,117.699
	c-8.129,46.034-33.546,92.326-71.568,130.349C391.132,328.135,331.113,355.908,277.105,355.908z M390.918,24.388
	c-47.696,0-101.278,25.106-143.333,67.161c-34.523,34.523-57.539,76.203-64.807,117.364c-6.989,39.572,1.551,73.752,24.045,96.246
	c17.269,17.269,41.571,26.397,70.278,26.398c47.694,0.001,101.277-25.105,143.332-67.161
	c34.523-34.523,57.539-76.203,64.807-117.364c6.989-39.572-1.551-73.752-24.045-96.246
	C443.926,33.517,419.625,24.388,390.918,24.388z"/>
<ellipse transform="matrix(-0.7071 -0.7071 0.7071 -0.7071 444.3512 540.0057)" style="fill:#FFE9BF;" cx="334.014" cy="177.975" rx="134.401" ry="192.038"/>
<g>
	<circle style="fill:#000030;" cx="278.971" cy="233.021" r="15.913"/>
	<circle style="fill:#000030;" cx="260.623" cy="141.269" r="15.913"/>
	<circle style="fill:#000030;" cx="242.275" cy="196.325" r="15.913"/>
	<circle style="fill:#000030;" cx="260.623" cy="288.077" r="15.913"/>
	<circle style="fill:#000030;" cx="223.927" cy="251.381" r="15.913"/>
	<circle style="fill:#000030;" cx="60.243" cy="451.761" r="15.809"/>
	<circle style="fill:#000030;" cx="407.431" cy="67.868" r="15.913"/>
	<circle style="fill:#000030;" cx="297.331" cy="104.573" r="15.913"/>
	<circle style="fill:#000030;" cx="334.015" cy="141.257" r="15.913"/>
	<circle style="fill:#000030;" cx="425.779" cy="159.617" r="15.913"/>
	<circle style="fill:#000030;" cx="389.083" cy="122.921" r="15.913"/>
	<circle style="fill:#000030;" cx="297.331" cy="177.977" r="15.913"/>
	<path style="fill:#000030;" d="M478.432,33.568C450.158,5.294,408.359-5.648,360.733,2.763
		c-46.034,8.129-92.326,33.546-130.348,71.568s-63.439,84.313-71.568,130.349c-5.562,31.492-2.654,60.434,8.125,84.605
		c-16.293,14.493-37.945,30.643-60.703,47.616c-31.664,23.616-64.406,48.036-88.615,72.245
		c-23.498,23.498-23.498,61.733,0.001,85.231c11.749,11.749,27.182,17.624,42.614,17.624c15.433,0,30.867-5.875,42.616-17.624
		c24.209-24.209,48.629-56.952,72.246-88.617c16.972-22.757,33.12-44.408,47.614-60.701c16.136,7.196,34.396,10.887,54.126,10.886
		c9.823,0,20.014-0.914,30.481-2.763c46.034-8.129,92.327-33.546,130.349-71.568s63.438-84.313,71.568-130.349
		C517.647,103.643,506.708,61.844,478.432,33.568z M155.582,391.201c-23.099,30.97-46.983,62.994-69.945,85.957
		c-14.004,14.004-36.79,14.004-50.794,0c-6.784-6.784-10.521-15.803-10.521-25.397c0-9.594,3.735-18.613,10.521-25.397
		c22.961-22.961,54.986-46.845,85.954-69.944c21.565-16.083,42.158-31.442,58.686-45.747c3.086,4.118,6.463,8.027,10.14,11.704
		c3.677,3.677,7.603,7.034,11.721,10.12C187.036,349.03,171.671,369.629,155.582,391.201z M485.259,147.033
		c-7.269,41.161-30.285,82.842-64.807,117.364c-34.522,34.523-76.203,57.538-117.364,64.806
		c-39.571,6.99-73.751-1.551-96.246-24.044c-22.494-22.494-31.032-56.674-24.045-96.246c7.269-41.161,30.285-82.842,64.807-117.364
		c34.523-34.523,76.203-57.538,117.364-64.807c9.008-1.591,17.738-2.377,26.113-2.377c28.414,0,52.759,9.049,70.132,26.421
		C483.708,73.28,492.247,107.461,485.259,147.033z"/>
	<circle style="fill:#000030;" cx="444.127" cy="104.573" r="15.913"/>
	<circle style="fill:#000030;" cx="370.735" cy="251.381" r="15.913"/>
	<circle style="fill:#000030;" cx="407.431" cy="214.673" r="15.913"/>
	<circle style="fill:#000030;" cx="334.039" cy="214.673" r="15.913"/>
	<circle style="fill:#000030;" cx="315.679" cy="269.729" r="15.913"/>
	<circle style="fill:#000030;" cx="370.723" cy="177.965" r="15.913"/>
	<circle style="fill:#000030;" cx="352.375" cy="86.219" r="15.913"/>
</g>
</svg>