<?xml version="1.0" encoding="iso-8859-1"?>
<!-- Uploaded to: SVG Repo, www.svgrepo.com, Generator: SVG Repo Mixer Tools -->
<svg version="1.1" id="Layer_1" xmlns="http://www.w3.org/2000/svg" xmlns:xlink="http://www.w3.org/1999/xlink" 
	 viewBox="0 0 511.988 511.988" xml:space="preserve">
<path style="fill:#C60024;" d="M364.095,177.521c-10.063,0-16.564,5.243-23.18,11.602c-0.009,0.009-0.018,0.017-0.028,0.027
	c-7.225-6.791-13.131-11.628-23.208-11.628c-14.471,0-25.805,11.731-25.805,26.202c0,6.849,1.987,10.717,3.596,13.974
	c6.639,13.449,45.417,45.584,45.417,45.584s0.024-0.019,0.028-0.022c0.594-0.49,39.109-32.306,45.39-45.56
	c1.546-3.264,3.651-7.426,3.651-13.974C389.955,189.252,378.566,177.521,364.095,177.521z"/>
<g>
	<rect x="275.86" y="302.469" style="fill:#57565C;" width="130.104" height="201.855"/>
	<rect x="106.017" y="315.603" style="fill:#57565C;" width="130.103" height="188.721"/>
</g>
<g>
	<rect x="210.231" y="315.603" style="fill:#3E3D43;" width="25.892" height="188.721"/>
	<rect x="380.074" y="302.407" style="fill:#3E3D43;" width="25.892" height="201.916"/>
</g>
<rect x="120.531" y="279.819" style="fill:#ACABB1;" width="101.096" height="35.784"/>
<polygon style="fill:#C60024;" points="210.234,104.378 145.155,46.668 131.913,46.668 131.913,279.816 210.234,279.816 "/>
<g>
	<polygon style="fill:#A50020;" points="188.087,84.738 210.234,104.378 210.234,279.816 188.087,279.816 	"/>
	<path style="fill:#A50020;" d="M364.095,177.521c-10.063,0-16.564,5.243-23.18,11.602v74.135c0.594-0.49,39.109-32.306,45.39-45.56
		c1.546-3.264,3.651-7.426,3.651-13.974C389.955,189.252,378.566,177.521,364.095,177.521z"/>
</g>
<g>
	<rect x="146.421" y="199.471" style="fill:#FFFFFF;" width="15.332" height="20.931"/>
	<rect x="146.421" y="101.574" style="fill:#FFFFFF;" width="15.332" height="88.453"/>
</g>
<rect x="255.995" y="43.798" transform="matrix(0.3846 0.9231 -0.9231 0.3846 221.0771 -204.1687)" width="15.332" height="39.842"/>
<rect x="252.495" y="109.505" transform="matrix(0.9993 0.0385 -0.0385 0.9993 4.7128 -10.4008)" width="39.843" height="15.331"/>
<rect x="224.204" y="-0.062" transform="matrix(0.7366 0.6763 -0.6763 0.7366 74.5015 -151.5865)" width="15.331" height="39.841"/>
<path d="M124.247,39.002V272.15h-11.386v35.784H98.355v204.054h145.436V307.934h-14.506V272.15H217.9V100.932l-69.834-61.929
	H124.247z M228.46,496.656H113.687v-16.672H228.46V496.656z M228.46,323.266v141.388H113.687V323.266H228.46z M213.954,307.934
	h-85.761v-20.452h85.761V307.934z M202.568,272.15H139.58V54.334h2.667l60.322,53.493V272.15H202.568z"/>
<path d="M268.196,511.988h145.436V294.802H268.196V511.988z M283.528,310.134h114.773v16.672H283.528V310.134z M283.528,342.137
	h114.773v154.519H283.528V342.137z"/>
<path d="M364.095,169.855c-9.963,0-17.259,4.108-23.228,9.005c-6.32-5.224-13.176-9.005-23.187-9.005
	c-18.456,0-33.471,15.193-33.471,33.868c0,8.489,2.577,13.701,4.281,17.152l0.106,0.215c7.156,14.499,43.301,44.697,47.4,48.094
	l4.877,4.042l4.889-4.03c6.749-5.562,40.748-34.032,47.469-48.216l0.178-0.373c1.677-3.528,4.211-8.86,4.211-16.884
	C397.62,185.049,382.581,169.855,364.095,169.855z M379.563,214.024l-0.186,0.391c-3.647,7.696-23.815,26.384-38.478,38.854
	c-14.583-12.458-34.698-31.153-38.555-38.965l-0.108-0.221c-1.446-2.926-2.695-5.454-2.695-10.361
	c0-10.395,7.968-18.537,18.139-18.537c7.03,0,11.052,3.057,17.956,9.548l5.31,4.992l5.255-5.052
	c6.542-6.292,11.106-9.487,17.894-9.487c10.202,0,18.194,8.142,18.194,18.537C382.288,208.289,380.964,211.074,379.563,214.024z"/>
</svg>